<?xml version="1.0" standalone="no"?>
<!DOCTYPE svg PUBLIC "-//W3C//DTD SVG 20010904//EN" "http://www.w3.org/TR/2001/REC-SVG-20010904/DTD/svg10.dtd">
<svg xmlns="http://www.w3.org/2000/svg" version="1.0" width="1080.000000pt" height="1920.000000pt" viewBox="0 0 1080.000000 1920.000000" preserveAspectRatio="xMidYMid meet">
<metadata>
Created by potrace 1.16, written by Peter Selinger 2001-2019
<meta name="Producer" content="Online-Convert"/></metadata>
<g transform="translate(0.000000,1920.000000) scale(0.100000,-0.100000)" fill="#000000" stroke="none">
<path d="M4908 17533 c-72 -27 -71 -26 -73 -56 -1 -18 -8 -23 -38 -25 -20 -2 -37 -7 -37 -12 0 -16 -32 -20 -58 -6 -15 7 -34 11 -42 7 -32 -13 -70 -44 -75 -62 -7 -21 -118 -57 -173 -56 -17 0 -42 -4 -55 -10 -12 -6 -38 -17 -57 -23 -19 -7 -64 -26 -100 -43 -36 -16 -75 -33 -87 -38 -55 -22 -80 -35 -114 -61 -20 -15 -44 -28 -52 -28 -9 0 -19 -9 -22 -21 -4 -11 -13 -18 -20 -15 -14 5 -45 -23 -45 -41 0 -17 -36 -44 -52 -38 -9 4 -18 0 -21 -8 -3 -9 -20 -18 -37 -22 -17 -4 -34 -13 -37 -20 -2 -8 -19 -17 -36 -21 -29 -6 -57 -25 -57 -38 0 -3 10 -2 23 3 46 17 94 31 110 31 26 0 32 -22 10 -40 -11 -9 -24 -26 -27 -38 -5 -15 -15 -22 -32 -22 -17 0 -24 -6 -24 -18 0 -28 11 -34 31 -16 20 18 28 9 34 -37 3 -25 -2 -38 -23 -59 -40 -40 -72 -80 -72 -91 0 -5 -13 -9 -30 -9 -19 0 -33 -7 -40 -20 -6 -10 -33 -27 -61 -37 -28 -10 -54 -25 -57 -33 -11 -30 -83 -88 -153 -123 -26 -14 -35 -24 -32 -37 9 -33 -71 -150 -103 -150 -6 0 -14 -7 -18 -15 -3 -8 -17 -20 -31 -25 -14 -5 -25 -16 -25 -25 0 -8 -4 -15 -9 -15 -5 0 -15 -16 -21 -35 -6 -19 -16 -35 -21 -35 -5 0 -9 -5 -9 -11 0 -6 9 -8 23 -4 12 3 18 3 12 -2 -5 -4 -15 -17 -21 -28 -6 -11 -23 -22 -38 -25 -17 -3 -35 -18 -49 -42 -12 -20 -46 -57 -74 -83 -29 -26 -53 -53 -53 -60 0 -8 -9 -16 -19 -20 -11 -3 -22 -14 -25 -23 -3 -9 -4 -6 -1 8 7 51 34 105 63 130 19 16 33 39 37 62 4 23 16 43 31 53 13 8 23 19 21 24 -3 11 106 141 119 141 16 0 66 67 56 74 -10 6 -82 -41 -82 -53 0 -4 -12 -14 -26 -22 -34 -18 -114 -96 -138 -134 -24 -38 -63 -86 -146 -178 -52 -58 -71 -72 -95 -73 -49 -2 -73 -13 -79 -39 -4 -14 -13 -25 -20 -25 -14 0 -76 -64 -76 -79 0 -4 -12 -13 -27 -20 -21 -9 -28 -9 -34 0 -4 7 -2 18 5 23 7 6 19 32 26 59 7 26 17 50 21 53 16 10 9 24 -11 24 -11 0 -23 -7 -26 -15 -4 -8 -12 -15 -19 -15 -6 0 -22 -8 -33 -17 -12 -10 -37 -29 -57 -43 -19 -14 -37 -32 -40 -41 -3 -8 -15 -15 -27 -15 -15 1 -28 -11 -45 -44 -13 -25 -30 -50 -38 -56 -8 -6 -15 -18 -15 -26 0 -9 -7 -29 -15 -44 -8 -16 -15 -36 -15 -45 0 -9 -13 -35 -30 -57 -16 -23 -30 -44 -30 -47 0 -3 -20 -40 -44 -83 -23 -42 -55 -108 -70 -147 -29 -75 -47 -116 -77 -181 -10 -22 -19 -45 -19 -50 0 -6 -11 -21 -25 -34 -14 -13 -25 -29 -25 -36 0 -6 -7 -15 -16 -18 -9 -4 -14 -13 -10 -22 3 -8 -2 -27 -11 -41 -10 -14 -18 -31 -19 -37 -5 -23 -50 -122 -61 -134 -7 -7 -13 -27 -13 -44 0 -26 -2 -29 -15 -18 -12 10 -15 9 -15 -4 0 -9 -6 -25 -13 -36 -10 -17 -9 -22 2 -29 17 -11 4 -87 -33 -186 -14 -38 -26 -78 -26 -88 0 -32 -42 -148 -56 -154 -17 -6 -32 -83 -39 -198 -2 -49 -10 -142 -16 -205 -20 -214 -20 -263 -5 -325 9 -32 23 -69 31 -82 9 -13 20 -42 25 -66 19 -91 28 -114 52 -138 17 -17 31 -50 43 -104 14 -59 27 -88 49 -113 17 -17 34 -31 39 -29 5 1 7 5 5 7 -1 3 5 16 15 30 9 13 17 35 17 48 0 32 34 25 38 -8 4 -22 2 -23 -14 -10 -16 14 -17 13 -10 -10 4 -14 10 -35 13 -48 3 -13 11 -21 18 -18 8 3 17 -7 23 -22 25 -69 52 -160 52 -179 0 -11 3 -23 8 -27 4 -4 12 -47 18 -94 22 -181 82 -413 115 -447 5 -5 9 -17 9 -26 0 -9 7 -22 16 -30 25 -21 52 -81 55 -124 3 -45 28 -98 58 -127 12 -10 21 -25 21 -32 0 -8 7 -19 15 -26 8 -7 15 -21 15 -31 0 -11 4 -19 10 -19 13 0 50 -143 49 -190 -1 -14 5 -38 11 -55 7 -16 13 -49 13 -72 0 -36 3 -43 19 -43 15 0 18 -5 12 -22 -8 -27 -22 -38 -40 -31 -8 3 -18 -6 -24 -23 -33 -87 -79 -164 -98 -164 -40 0 -25 -226 21 -316 29 -57 46 -65 120 -56 37 5 69 11 72 14 3 3 1 17 -5 32 -5 15 -10 47 -10 71 0 34 4 45 19 50 54 17 65 73 91 460 5 77 16 183 25 235 9 52 21 127 25 165 5 39 18 135 29 215 11 80 20 168 21 195 0 57 35 247 50 276 6 10 15 38 20 61 26 127 89 349 101 358 8 7 29 94 29 124 0 24 17 71 46 128 8 14 14 40 14 58 0 17 8 45 17 63 19 35 18 33 28 97 4 25 11 48 17 51 6 4 8 13 5 21 -2 8 4 25 14 39 10 13 19 32 19 43 0 13 5 17 20 13 12 -3 20 0 20 7 0 6 9 20 21 29 11 10 25 31 31 47 5 17 13 28 17 26 4 -3 13 -1 21 4 12 7 15 20 24 100 4 34 27 81 37 74 9 -5 31 30 24 40 -3 3 -2 4 1 2 3 -3 17 6 30 19 16 16 26 43 33 86 10 60 21 90 21 56 0 -10 5 -14 15 -11 8 4 13 10 10 14 -3 5 1 12 8 17 7 4 16 16 20 25 3 9 14 15 24 14 24 -4 33 11 33 57 0 20 5 37 10 37 16 0 70 42 65 51 -3 4 6 9 18 13 40 10 76 49 81 87 6 46 70 156 96 164 21 7 54 70 45 85 -5 9 49 40 70 40 6 0 17 16 24 35 7 19 21 40 32 46 12 6 18 17 15 25 -6 16 29 38 50 30 7 -3 11 -11 8 -19 -3 -8 2 -20 11 -27 12 -10 15 -10 15 4 0 37 55 106 84 106 12 0 17 -4 11 -8 -16 -12 -15 -29 2 -29 9 0 18 8 20 18 8 29 33 -3 41 -52 5 -31 12 -43 26 -45 31 -4 54 14 58 43 2 22 9 29 31 31 15 2 27 -1 27 -7 0 -6 5 -11 11 -11 5 0 7 5 4 10 -3 6 3 10 15 10 12 0 18 -4 15 -10 -3 -5 -1 -10 4 -10 6 0 11 5 11 10 0 6 13 10 28 10 15 0 33 5 39 11 6 6 17 11 24 13 8 1 22 6 32 12 16 9 17 12 3 23 -9 8 -25 11 -36 8 -11 -3 -18 -1 -14 4 6 10 123 12 148 3 8 -3 13 -11 10 -19 -8 -19 44 -7 59 15 7 9 24 20 40 24 15 3 27 12 27 20 0 17 75 12 94 -7 9 -8 32 -13 62 -12 64 3 66 3 59 15 -4 6 5 10 21 10 22 0 24 3 15 14 -9 11 -9 16 0 22 7 4 9 3 6 -3 -4 -6 20 -9 66 -8 92 3 95 3 77 15 -11 7 -11 10 -2 10 7 0 11 4 7 9 -3 5 0 13 6 17 8 4 9 3 5 -4 -12 -20 6 -13 31 10 21 20 23 20 17 4 -5 -14 -4 -17 4 -12 7 4 12 14 12 22 0 18 25 46 34 37 3 -4 6 0 6 7 0 10 4 8 13 -4 9 -13 20 -16 42 -11 17 4 37 7 45 8 8 1 20 9 27 17 11 13 12 13 13 -3 0 -10 5 -15 10 -12 6 3 10 -1 10 -9 0 -8 5 -18 12 -22 6 -4 8 -3 4 4 -4 7 10 10 46 9 48 -2 53 0 56 21 3 20 5 21 20 6 11 -11 17 -13 20 -5 2 6 8 9 13 5 5 -3 9 1 9 8 0 10 2 10 9 -1 10 -16 51 -26 51 -13 0 12 3 12 193 15 92 1 167 5 167 9 0 9 30 3 38 -8 4 -6 34 -10 67 -11 39 0 59 -4 57 -12 -3 -15 15 -14 21 2 4 9 6 8 6 -2 1 -11 4 -11 18 0 14 12 16 12 9 -1 -4 -8 5 0 21 18 15 18 36 32 46 32 10 0 16 -4 12 -9 -9 -16 37 -42 52 -29 7 6 13 6 13 1 0 -5 25 -9 55 -8 40 1 55 -2 55 -12 0 -7 3 -12 8 -11 11 2 46 -14 55 -26 5 -7 11 -5 18 7 14 24 22 22 58 -15 17 -17 31 -29 31 -25 0 4 9 -1 21 -12 13 -12 18 -25 13 -33 -4 -7 -4 -10 1 -6 4 4 13 4 19 -1 6 -6 25 -12 41 -15 17 -2 31 -5 33 -6 1 -2 5 -3 10 -4 12 -2 57 -36 47 -36 -5 0 4 -13 20 -30 50 -49 65 -69 65 -85 0 -8 9 -15 20 -15 11 0 20 -6 20 -13 0 -19 34 -48 59 -50 11 -1 21 -5 21 -10 0 -4 4 -6 10 -2 8 5 41 -44 40 -60 -1 -30 3 -35 25 -35 14 0 34 -9 45 -20 11 -11 23 -19 28 -17 4 1 12 -8 17 -21 6 -15 17 -22 30 -20 11 2 30 -7 42 -20 12 -13 24 -22 26 -20 3 2 9 0 13 -4 4 -5 2 -8 -6 -8 -10 0 -10 -3 0 -15 11 -13 15 -13 21 -3 7 10 9 8 9 -5 0 -9 11 -22 25 -29 13 -6 22 -15 18 -21 -4 -6 -1 -7 6 -3 7 5 10 15 7 25 -4 11 -1 10 9 -4 9 -11 20 -20 25 -20 4 0 12 -4 17 -8 4 -5 3 -8 -2 -7 -22 5 -27 -1 -15 -15 11 -13 10 -14 -4 -9 -11 4 -16 1 -16 -10 0 -17 15 -21 64 -17 22 2 27 -1 23 -12 -3 -9 0 -18 8 -21 7 -2 19 -17 27 -33 7 -15 24 -33 36 -39 17 -8 20 -13 10 -17 -9 -4 -7 -6 5 -6 9 -1 17 -7 17 -15 0 -7 8 -20 17 -27 10 -8 14 -9 10 -2 -4 6 -2 15 5 19 7 4 10 4 6 -1 -10 -11 11 -47 23 -39 7 4 7 -2 -1 -15 -12 -23 -5 -61 11 -61 6 0 8 -4 5 -8 -5 -9 53 -71 67 -72 4 0 11 0 15 0 11 0 36 -51 33 -67 -1 -7 3 -13 9 -13 6 0 9 -4 6 -8 -3 -5 5 -18 17 -30 28 -26 49 -52 43 -52 -3 0 1 -12 9 -27 11 -20 11 -31 3 -47 -13 -23 -12 -25 7 -46 7 -8 14 -19 16 -25 3 -19 7 -30 24 -79 13 -34 20 -44 26 -35 7 11 10 9 15 -8 4 -13 11 -23 16 -23 5 0 7 -4 3 -9 -9 -16 30 -76 53 -79 21 -3 25 -12 37 -97 8 -48 24 -95 40 -115 7 -8 18 -53 25 -100 7 -47 20 -100 27 -119 8 -19 19 -64 24 -100 10 -76 19 -129 47 -291 11 -63 26 -164 32 -225 6 -60 15 -140 21 -177 5 -37 9 -95 9 -130 0 -35 5 -81 10 -103 5 -22 11 -85 15 -140 3 -55 12 -185 20 -290 8 -104 17 -242 20 -305 15 -342 26 -504 35 -513 4 -5 11 -4 15 3 7 12 33 126 38 170 2 14 9 36 17 49 20 38 21 268 1 288 -18 19 -19 193 -1 238 17 42 27 102 30 175 2 35 2 35 30 -25 21 -43 29 -76 30 -115 0 -30 5 -82 11 -115 6 -33 12 -80 15 -105 2 -25 7 -58 10 -75 4 -16 8 -48 10 -70 10 -111 12 -119 35 -135 22 -14 23 -14 11 2 -14 17 -9 71 8 93 4 6 11 42 15 80 4 39 11 72 15 75 8 5 23 226 21 292 -1 21 -8 59 -16 85 -8 26 -15 62 -15 80 0 17 -4 34 -9 37 -11 7 -17 219 -7 279 1 10 7 22 13 25 6 4 13 39 16 77 11 139 28 261 41 305 8 25 19 70 26 100 32 143 86 290 106 290 12 0 28 105 25 155 -5 61 -3 82 14 185 11 62 24 108 32 113 7 4 20 23 27 42 8 18 27 41 43 51 15 10 34 24 40 33 7 8 29 20 49 27 44 15 51 4 34 -63 -6 -26 -13 -61 -15 -77 -2 -16 -9 -33 -17 -37 -10 -7 -9 -9 4 -9 22 0 56 36 74 78 7 19 25 42 38 53 13 10 27 30 30 44 4 14 13 25 20 25 8 0 31 35 52 78 l39 77 2 165 c6 403 4 629 -6 649 -8 15 -8 58 -1 158 12 141 26 189 71 234 19 19 21 31 18 113 -4 81 -14 120 -29 111 -3 -2 -6 21 -6 51 -1 40 -6 60 -21 77 -11 12 -24 39 -27 60 -4 21 -15 52 -25 70 -11 18 -22 43 -26 57 -4 14 -20 43 -35 65 -23 33 -29 55 -34 121 -5 63 -13 93 -36 137 -17 30 -37 85 -44 121 -8 35 -17 70 -21 76 -8 13 -13 67 -21 242 -5 92 -8 109 -24 118 -15 8 -18 21 -18 62 1 54 -17 103 -47 128 -9 7 -22 28 -29 45 -14 33 -73 95 -91 95 -5 0 -26 16 -45 36 -78 79 -95 94 -110 95 -8 0 -37 14 -65 30 -88 52 -198 96 -281 114 -18 3 -39 14 -48 24 -25 28 -45 97 -39 136 6 40 -16 75 -49 75 -10 0 -17 3 -16 8 3 18 -18 50 -61 89 -25 24 -49 43 -52 43 -3 0 -21 14 -39 30 -20 18 -45 30 -61 30 -15 0 -29 7 -33 15 -7 18 -33 20 -38 3 -3 -9 -15 -4 -36 14 -38 32 -72 44 -81 29 -5 -8 -16 -7 -39 1 -28 11 -33 10 -46 -7 -12 -17 -18 -18 -34 -8 -17 10 -23 7 -49 -30 -44 -62 -23 -95 27 -42 28 30 60 31 120 4 24 -11 56 -19 70 -18 40 2 45 0 26 -14 -17 -12 -16 -14 9 -31 26 -17 27 -17 21 2 -5 15 -1 21 15 25 34 9 41 -1 38 -52 -1 -25 2 -63 6 -83 7 -36 9 -38 46 -38 21 0 41 -5 44 -10 3 -6 17 -7 29 -4 19 4 28 -2 47 -33 13 -21 25 -41 27 -46 3 -5 -34 -94 -41 -98 -1 0 -54 -6 -117 -13 -70 -7 -137 -9 -174 -4 -33 5 -69 5 -80 1 -12 -4 -29 -6 -39 -4 -23 3 -44 -23 -51 -64 -6 -29 -9 -31 -41 -27 -26 3 -35 0 -35 -11 0 -14 18 -34 33 -36 9 -1 9 -4 -9 -46 -14 -34 -14 -36 11 -58 l26 -22 -28 -43 c-33 -51 -60 -60 -114 -39 -28 11 -48 13 -70 7 -37 -11 -89 -43 -113 -69 -10 -11 -23 -18 -28 -15 -4 3 -20 8 -35 10 -14 3 -39 12 -56 20 -20 11 -32 12 -36 5 -4 -6 -35 -10 -71 -9 -36 1 -58 3 -49 5 9 2 19 14 21 27 6 30 -14 58 -35 50 -11 -4 -18 2 -23 20 -3 13 -3 30 1 35 11 19 -15 12 -37 -9 -12 -11 -25 -20 -30 -20 -11 0 -10 18 2 25 15 9 12 42 -5 49 -8 3 -15 1 -15 -5 0 -6 -5 -7 -11 -3 -6 3 -9 23 -7 44 2 24 0 36 -7 32 -12 -7 -58 -11 -51 -4 13 13 -54 102 -77 102 -19 0 -33 19 -35 48 -1 32 -58 151 -75 157 -7 3 -31 31 -53 61 -21 31 -51 72 -66 91 -16 20 -28 46 -28 59 0 15 -6 24 -16 24 -19 0 -44 24 -49 48 -1 10 -17 32 -33 50 -17 18 -33 45 -37 61 -7 34 -42 48 -60 24 -10 -13 -13 -13 -26 -1 -8 8 -26 18 -40 21 -14 4 -46 22 -72 42 -25 19 -49 35 -53 35 -3 0 -22 13 -40 30 -19 16 -46 33 -59 36 -14 3 -25 9 -25 13 0 19 -155 67 -240 75 -25 3 -47 15 -72 40 -20 20 -46 36 -57 36 -12 0 -33 7 -46 16 -13 8 -32 14 -42 13 -10 -2 -40 10 -68 26 -55 33 -105 41 -277 47 -94 4 -116 1 -170 -19z"/>
<path d="M3685 17283 c-11 -2 -38 -10 -60 -18 -22 -8 -53 -16 -70 -19 -40 -5 -95 -26 -95 -36 0 -4 -15 -11 -33 -14 -19 -3 -52 -22 -75 -42 -23 -20 -48 -34 -55 -31 -6 3 -36 -8 -64 -24 -29 -16 -61 -29 -72 -29 -11 0 -22 -4 -25 -9 -3 -5 -18 -11 -33 -14 -45 -8 -98 -31 -117 -50 -10 -9 -23 -17 -30 -17 -6 0 -29 -23 -51 -51 -34 -46 -39 -57 -43 -122 -2 -40 -8 -76 -13 -81 -5 -6 -9 -22 -9 -37 0 -22 4 -26 20 -22 18 5 95 80 116 113 5 8 27 28 49 44 22 16 54 43 71 60 36 37 60 57 134 111 90 67 105 74 176 85 37 6 74 15 83 20 9 4 45 18 80 30 35 12 78 32 95 45 22 17 47 24 83 26 42 2 58 8 78 29 l26 27 -25 17 c-24 15 -92 20 -141 9z"/>
<path d="M3300 16760 c0 -5 -12 -10 -26 -10 -35 0 -53 -11 -114 -70 -29 -28 -67 -58 -84 -67 -17 -9 -51 -29 -75 -46 -25 -17 -52 -30 -60 -30 -25 0 -41 -17 -39 -42 2 -20 5 -22 33 -14 16 5 46 9 65 9 25 0 46 9 70 30 19 16 41 29 48 30 8 0 27 8 43 17 23 14 29 23 24 40 -5 20 -2 22 29 19 19 -1 34 0 33 3 -3 10 55 101 64 101 5 0 9 9 9 20 0 11 -4 20 -10 20 -5 0 -10 -4 -10 -10z"/>
<path d="M6990 12894 c-19 -7 -28 -13 -20 -13 22 -1 -3 -22 -44 -36 -41 -14 -125 -8 -146 10 -18 16 -117 16 -128 -1 -11 -17 -116 -33 -256 -38 -86 -3 -132 -9 -137 -17 -5 -9 -11 -8 -24 4 -21 22 -27 21 -54 -2 -12 -11 -30 -17 -41 -14 -14 4 -20 0 -20 -11 0 -23 -31 -20 -37 4 -7 25 -15 25 -28 2 -26 -46 -51 -82 -58 -82 -5 0 -5 5 -1 12 4 7 3 8 -5 4 -7 -5 -24 -9 -38 -11 -14 -1 -28 -7 -32 -12 -11 -16 -41 -23 -41 -10 0 7 -9 13 -20 14 -18 2 -25 -8 -21 -30 1 -5 -2 -6 -7 -3 -5 3 -14 -5 -20 -19 -7 -14 -18 -22 -29 -20 -10 1 -25 -3 -33 -9 -26 -20 -84 -43 -103 -40 -9 1 -15 -1 -12 -6 3 -5 0 -10 -6 -12 -15 -5 0 -78 16 -78 8 0 17 -9 20 -20 4 -11 11 -18 16 -15 5 4 12 -1 15 -9 7 -19 -24 -89 -36 -81 -5 3 -11 1 -15 -5 -4 -6 5 -10 19 -10 25 0 26 -3 26 -53 0 -29 4 -57 10 -63 11 -11 18 -45 19 -91 1 -17 7 -38 14 -45 7 -7 13 -47 15 -91 3 -64 0 -82 -14 -98 -15 -16 -15 -19 -2 -19 25 0 45 -66 53 -173 6 -85 10 -101 31 -122 17 -17 24 -36 24 -62 0 -21 9 -58 20 -82 11 -24 20 -52 20 -62 0 -10 7 -19 15 -19 14 0 58 -35 104 -81 9 -9 25 -19 36 -23 12 -3 29 -19 38 -36 11 -17 27 -31 40 -32 12 0 44 -2 71 -3 28 -2 55 -9 60 -17 6 -7 20 -12 32 -10 11 2 27 -4 34 -13 7 -9 28 -15 52 -15 22 0 37 -4 33 -9 -5 -9 28 -33 50 -37 6 0 12 -2 15 -3 3 -1 16 -4 29 -7 13 -2 29 -11 35 -19 7 -9 32 -17 61 -19 28 -2 50 -5 50 -6 0 -1 8 -3 18 -5 13 -2 17 1 13 11 -4 9 -2 12 5 8 6 -4 15 0 20 7 5 8 9 9 9 4 0 -6 14 -12 30 -13 27 -2 30 1 30 26 0 30 25 41 34 15 8 -21 194 -18 238 4 62 31 68 33 90 33 33 0 100 25 112 42 6 7 22 15 36 15 14 1 26 7 28 13 2 5 17 10 33 10 16 0 29 5 29 10 0 6 13 10 29 10 20 0 30 6 34 20 3 10 0 21 -5 22 -6 2 -3 10 6 17 14 12 16 12 10 -3 -12 -31 43 -19 77 17 22 23 40 32 62 32 45 0 78 25 72 55 -5 25 20 74 34 66 14 -9 11 84 -4 120 -8 20 -15 43 -15 52 0 9 -14 44 -32 79 -35 69 -144 177 -192 189 -14 3 -26 10 -26 15 0 5 -3 8 -7 7 -5 -1 -21 4 -37 11 -16 6 -37 13 -46 14 -10 2 -24 8 -32 14 -7 6 -21 9 -31 7 -11 -1 -16 0 -13 4 8 8 -55 29 -71 24 -7 -2 -13 -16 -13 -31 -1 -25 -1 -25 -15 -7 -16 21 -61 30 -72 14 -3 -6 -1 -8 4 -5 6 4 13 -4 15 -16 7 -36 -41 -73 -74 -56 -11 6 -19 5 -24 -2 -8 -13 -112 -3 -132 13 -7 6 -28 8 -47 5 -45 -7 -100 14 -83 31 9 9 9 12 -3 13 -7 1 -21 3 -29 4 -8 1 -23 3 -32 4 -10 0 -18 5 -18 11 0 6 25 8 61 6 46 -3 64 0 76 13 9 9 18 15 21 13 2 -2 6 -1 9 2 4 3 -3 6 -15 6 -12 0 -22 6 -22 14 0 15 -21 26 -49 26 -10 0 -26 9 -36 20 -18 19 -17 20 4 20 25 0 40 28 20 40 -7 5 -17 6 -21 4 -4 -3 -8 0 -8 5 0 6 9 11 20 11 23 0 61 19 73 37 9 14 40 6 31 -8 -5 -9 32 -8 209 1 4 0 6 5 5 12 -4 17 49 25 106 16 28 -4 60 -5 73 -2 16 5 28 0 41 -16 16 -20 21 -21 40 -9 18 11 26 10 60 -7 51 -28 132 -20 159 15 7 9 13 12 13 8 0 -5 10 -1 22 7 12 9 34 16 48 16 14 1 36 7 50 15 31 18 40 18 40 3 1 -7 11 -26 24 -42 27 -32 56 -30 56 4 0 14 4 19 12 14 25 -15 100 -4 119 18 28 31 28 84 1 104 -9 6 -13 18 -9 27 4 10 -4 28 -19 47 -14 16 -23 30 -19 30 4 0 -11 21 -35 48 -66 74 -114 122 -122 122 -5 0 -8 6 -8 14 0 8 -10 18 -22 22 -13 4 -36 17 -53 30 -16 13 -41 32 -54 41 -13 10 -37 30 -53 46 -16 15 -33 27 -38 27 -5 0 -16 8 -26 18 -10 9 -20 17 -23 18 -3 0 -31 12 -61 25 -30 14 -75 26 -99 28 -24 1 -51 5 -60 10 -9 4 -45 8 -81 10 -36 1 -69 6 -75 10 -5 4 -26 2 -45 -5z m363 -1051 c23 -3 48 -5 55 -6 19 -1 72 -65 72 -87 0 -28 -46 -28 -55 0 -5 15 -12 18 -33 14 -17 -3 -42 3 -67 16 -21 11 -45 20 -51 20 -14 0 -44 27 -44 40 0 9 59 18 73 12 5 -3 28 -7 50 -9z"/>
<path d="M3772 12836 c-115 -8 -198 -18 -205 -25 -6 -6 -30 -11 -54 -11 -24 0 -60 -9 -80 -20 -21 -11 -34 -20 -30 -20 12 0 -22 -62 -50 -92 -14 -15 -31 -37 -37 -50 -9 -17 -19 -22 -40 -20 -30 3 -129 -56 -140 -83 -3 -8 -17 -20 -31 -27 -15 -7 -43 -40 -65 -78 -32 -55 -38 -73 -37 -118 1 -28 -1 -52 -5 -52 -4 0 -6 -9 -5 -19 0 -11 5 -17 9 -15 5 3 6 9 3 14 -3 4 2 11 11 14 10 4 18 0 21 -13 7 -26 101 -48 140 -33 15 6 52 11 82 11 30 0 57 5 61 11 8 12 154 60 200 64 19 2 36 9 38 15 4 13 62 14 96 2 15 -6 26 -6 28 -1 6 17 78 14 107 -4 9 -6 12 -5 8 1 -3 5 15 -1 41 -14 30 -16 59 -23 80 -21 25 3 40 -3 64 -24 17 -15 37 -28 44 -28 7 0 18 -8 23 -17 8 -13 13 -15 18 -6 14 20 63 3 78 -28 8 -15 24 -30 35 -34 14 -4 20 -15 20 -36 0 -33 -6 -36 -32 -12 -18 16 -19 16 -25 -5 -3 -12 -9 -22 -14 -22 -5 0 -18 -9 -29 -20 -17 -17 -18 -23 -8 -34 7 -8 16 -12 21 -9 4 2 7 -7 7 -21 0 -33 -13 -39 -76 -38 -38 0 -54 -4 -58 -14 -3 -9 -10 -13 -16 -9 -5 3 -21 -2 -35 -11 -14 -9 -34 -14 -47 -11 -12 3 -30 1 -40 -4 -11 -6 -27 -7 -36 -3 -9 4 -28 9 -42 11 -42 6 -50 12 -50 32 0 15 -9 22 -33 26 -35 7 -87 -8 -87 -25 0 -6 -4 -9 -8 -6 -17 10 -62 14 -62 6 0 -5 -7 -6 -17 -3 -11 4 -14 3 -9 -5 7 -12 -4 -16 -38 -12 -30 3 -154 -31 -167 -46 -6 -8 -18 -14 -25 -14 -17 0 -75 -60 -69 -70 2 -4 -7 -22 -21 -41 -52 -70 -56 -84 -31 -113 12 -14 36 -28 52 -30 17 -2 65 -11 108 -21 43 -9 90 -15 104 -12 16 3 41 -3 62 -14 19 -10 38 -16 42 -13 5 3 6 -2 3 -11 -4 -8 -1 -22 6 -30 11 -13 10 -14 -2 -10 -28 11 -45 -36 -27 -75 1 -3 3 -12 3 -20 1 -8 9 -14 18 -14 11 1 15 -5 12 -19 -4 -21 30 -67 49 -67 5 0 24 -7 43 -16 19 -9 37 -14 41 -11 3 4 15 1 26 -5 30 -16 128 -29 247 -33 201 -6 375 -15 420 -22 50 -7 82 -5 90 7 3 4 15 10 27 14 12 4 25 15 28 25 3 10 31 31 61 47 31 16 70 36 88 45 17 10 34 15 37 13 4 -2 14 5 23 15 12 13 26 17 50 14 24 -3 35 0 39 11 4 9 13 13 22 10 8 -3 15 -1 15 6 0 6 4 9 9 6 5 -3 8 2 7 11 0 10 8 19 18 21 25 5 66 47 66 67 0 9 7 18 15 21 8 4 15 14 15 23 0 10 12 26 28 38 34 26 82 120 84 167 1 19 5 33 9 30 4 -2 10 0 14 6 4 6 11 8 16 5 13 -8 12 -4 -10 41 -12 25 -17 56 -15 86 1 26 -1 47 -4 47 -28 -4 -33 3 -27 42 4 25 3 39 -3 35 -5 -3 -12 3 -15 14 -3 11 -1 23 4 26 5 3 7 9 4 14 -3 5 2 15 11 24 8 9 12 20 9 26 -3 6 1 13 9 16 11 4 16 19 16 49 0 34 4 45 19 50 17 5 19 13 15 80 -4 64 -2 77 15 94 23 23 30 12 25 -39 -2 -19 -2 -29 2 -22 3 6 10 10 15 6 5 -3 9 2 9 10 0 9 5 16 10 16 6 0 10 7 10 16 0 8 -4 13 -9 9 -12 -7 -43 24 -35 36 3 6 0 16 -6 24 -7 8 -9 15 -6 15 16 0 -18 41 -47 57 -31 17 -38 19 -56 22 -5 0 -13 10 -16 21 -4 11 -11 18 -16 15 -5 -4 -9 -1 -9 5 0 6 -4 8 -10 5 -5 -3 -10 -2 -10 2 0 5 -10 9 -21 10 -24 2 -99 49 -99 62 0 5 -9 11 -20 14 -11 3 -20 0 -20 -6 0 -7 -9 1 -19 17 -11 16 -30 31 -43 32 -36 5 -75 11 -188 29 -143 23 -134 23 -202 9 -34 -7 -65 -11 -70 -8 -4 3 -47 9 -94 14 -49 5 -97 16 -111 25 -35 23 -114 25 -341 11z m-167 -945 c17 -1 35 -7 40 -13 7 -8 6 -9 -1 -5 -15 9 -38 -19 -31 -37 9 -22 -18 -38 -65 -40 -42 -2 -61 -7 -104 -28 -11 -5 -40 -8 -65 -6 l-44 3 35 35 c19 19 34 37 33 40 -1 3 15 5 35 4 26 -2 42 4 57 20 11 12 30 21 43 20 17 -1 22 3 17 14 -4 11 -2 12 7 6 7 -6 27 -11 43 -13z"/>
<path d="M6400 10069 c0 -35 -16 -69 -31 -69 -6 0 -24 -9 -39 -20 -18 -13 -31 -16 -35 -10 -3 5 -17 10 -30 10 -12 0 -25 7 -29 15 -3 8 -17 20 -31 25 -14 5 -25 14 -25 19 0 14 -56 29 -140 35 -85 7 -135 -5 -143 -35 -3 -10 -11 -19 -19 -19 -7 0 -29 -24 -48 -53 -23 -33 -46 -55 -65 -61 -17 -5 -37 -11 -45 -14 -8 -3 -24 -7 -34 -9 -11 -2 -25 -8 -31 -13 -7 -5 -14 -8 -17 -5 -3 3 -11 -1 -18 -10 -13 -15 -60 -21 -60 -7 0 11 -74 2 -81 -10 -8 -12 -41 3 -40 18 0 15 -43 74 -55 74 -6 0 -17 6 -24 14 -6 8 -18 12 -26 9 -8 -3 -14 0 -14 6 0 13 -81 61 -103 61 -8 0 -17 5 -19 11 -3 10 -26 15 -102 23 -23 2 -45 11 -53 22 -7 10 -13 13 -13 8 0 -6 -25 -18 -55 -28 -60 -19 -122 -65 -136 -103 -5 -13 -19 -27 -32 -32 -14 -5 -27 -15 -29 -23 -9 -22 10 -58 37 -70 14 -6 25 -15 25 -19 0 -5 14 -16 32 -25 17 -9 40 -24 51 -34 10 -10 32 -24 49 -31 21 -9 28 -17 25 -31 -3 -10 -1 -16 4 -12 5 3 9 -16 10 -43 0 -26 2 -74 3 -106 2 -57 -4 -69 -34 -74 -8 -1 -27 -16 -41 -33 -22 -26 -35 -32 -84 -36 -52 -4 -57 -3 -50 13 4 10 8 24 8 31 0 6 5 12 11 12 6 0 3 5 -6 11 -22 13 -54 -3 -63 -31 -3 -11 -12 -20 -18 -20 -16 -1 -67 -46 -67 -60 0 -5 -7 -10 -15 -10 -9 0 -15 -9 -15 -24 0 -32 -19 -44 -35 -23 -13 18 -30 24 -20 7 3 -5 4 -10 1 -10 -3 0 -15 20 -27 45 -17 35 -28 47 -56 54 -38 11 -58 6 -87 -21 -11 -10 -28 -19 -38 -19 -28 -2 -29 -3 -89 -31 -56 -27 -100 -33 -92 -13 4 12 -21 17 -46 9 -11 -4 -11 -7 0 -20 11 -14 10 -15 -11 -12 -14 2 -34 -5 -44 -14 -13 -12 -36 -18 -67 -18 -27 0 -51 -6 -58 -13 -13 -16 -5 -27 21 -27 10 0 18 -4 18 -10 0 -5 -12 -10 -26 -10 -14 0 -23 4 -19 10 3 6 0 10 -8 10 -10 0 -16 -16 -19 -56 -3 -31 -10 -59 -17 -64 -7 -4 -12 -11 -11 -16 3 -18 -23 -83 -31 -78 -5 3 -6 -2 -3 -10 3 -9 10 -16 15 -16 10 0 -6 -33 -30 -62 -8 -10 -21 -18 -30 -18 -12 0 -16 -10 -17 -37 0 -21 -3 -69 -7 -107 -4 -38 -4 -73 0 -79 3 -6 5 -38 4 -73 -3 -84 19 -129 59 -121 30 6 48 -15 32 -37 -12 -16 -9 -30 9 -49 12 -11 19 -13 27 -5 8 8 15 6 26 -4 8 -9 12 -18 9 -22 -4 -3 -1 -6 5 -6 11 0 11 -38 -2 -58 -4 -7 -1 -15 8 -18 9 -3 13 -10 10 -15 -3 -5 4 -9 15 -9 19 0 26 15 22 42 0 4 8 10 19 13 15 5 20 14 18 33 -3 26 -2 26 61 27 38 0 65 -4 68 -11 7 -19 52 -10 69 14 8 12 16 34 17 49 2 17 9 29 20 31 10 2 31 16 47 31 32 29 70 37 101 21 21 -12 26 -46 7 -53 -10 -4 -10 -6 0 -6 7 -1 22 4 33 10 13 7 24 7 32 1 31 -26 77 -15 77 19 0 12 7 19 20 19 11 0 20 5 20 10 0 6 9 10 20 10 11 0 20 5 20 10 0 14 127 5 144 -9 13 -11 34 -10 54 2 6 5 17 5 22 2 6 -4 16 -2 23 3 7 6 32 12 56 14 36 2 45 7 47 24 4 28 -25 59 -55 59 -20 0 -24 6 -28 38 -3 27 0 37 10 37 8 0 20 7 28 16 11 13 36 15 183 11 94 -3 198 -10 231 -16 33 -6 76 -12 95 -12 19 0 45 -7 57 -15 22 -14 53 -10 53 7 0 5 20 9 45 9 25 0 78 9 118 20 90 26 216 37 243 22 23 -12 91 -15 146 -6 27 4 42 2 53 -9 20 -20 19 -24 -6 -30 -12 -3 -18 -10 -14 -17 4 -6 0 -19 -8 -28 -8 -9 -14 -29 -12 -44 2 -18 -2 -28 -9 -28 -22 0 -69 -47 -61 -60 5 -9 4 -11 -3 -6 -7 4 -12 2 -12 -3 0 -6 12 -11 26 -11 15 0 23 4 19 10 -8 13 18 8 27 -5 5 -7 8 -7 8 0 0 6 26 11 58 13 31 1 59 7 60 12 6 16 42 11 42 -6 0 -8 -4 -13 -9 -9 -5 3 -12 2 -15 -3 -3 -5 15 -9 39 -9 25 0 43 2 40 6 -2 4 3 8 11 8 8 0 13 -6 10 -14 -3 -8 2 -13 15 -13 11 0 22 -7 25 -15 4 -9 19 -15 40 -15 27 0 34 4 34 20 0 17 6 20 31 18 18 -1 35 -10 41 -21 5 -10 12 -16 15 -13 4 3 12 1 20 -6 10 -8 17 -8 25 0 6 6 17 8 24 5 8 -3 14 0 14 6 0 6 9 11 20 11 11 0 20 4 20 9 0 16 48 7 62 -11 7 -10 31 -23 53 -30 22 -7 41 -20 41 -28 1 -8 2 -21 3 -27 0 -7 12 -13 25 -13 19 0 23 -4 19 -20 -3 -12 0 -20 8 -20 8 0 4 -8 -9 -20 -25 -23 -28 -40 -11 -57 9 -9 6 -10 -10 -6 -17 4 -24 1 -28 -16 -3 -11 -12 -21 -19 -21 -8 0 -14 -9 -14 -20 0 -12 5 -17 14 -14 14 6 30 -22 20 -37 -3 -5 -13 -9 -23 -9 -13 0 -18 -7 -16 -24 2 -19 -1 -23 -13 -19 -11 5 -13 3 -7 -7 5 -9 4 -11 -3 -6 -7 4 -12 19 -12 33 0 47 -11 16 -15 -40 -3 -41 0 -57 11 -61 8 -3 14 1 14 9 0 7 4 16 9 19 5 3 8 -6 7 -20 -1 -19 -5 -24 -18 -20 -10 2 -18 0 -18 -5 0 -4 -7 -6 -15 -3 -8 4 -15 17 -15 29 0 22 -2 23 -30 12 -17 -7 -26 -13 -20 -15 17 -6 11 -20 -10 -27 -11 -4 -20 -15 -20 -27 0 -16 -5 -19 -25 -16 -14 3 -28 1 -31 -3 -3 -5 4 -9 15 -9 20 0 21 -8 4 -50 -6 -14 -8 -29 -5 -35 3 -5 -2 -4 -11 4 -14 11 -18 11 -23 -3 -6 -15 -8 -15 -21 1 -14 17 -14 17 -10 -5 3 -12 1 -20 -3 -17 -5 3 -11 1 -15 -5 -11 -17 -23 -11 -18 9 3 10 0 22 -6 25 -7 5 -11 -4 -11 -23 0 -30 11 -46 24 -34 15 16 31 9 31 -13 0 -13 -6 -24 -12 -24 -7 0 -13 -5 -13 -12 0 -6 -3 -8 -7 -5 -3 4 -12 2 -20 -5 -11 -9 -12 -7 -7 7 6 15 4 16 -16 5 -20 -11 -47 -18 -87 -22 -7 -1 -13 -5 -13 -10 0 -5 -17 -8 -37 -7 -21 1 -66 -1 -100 -5 -61 -8 -63 -9 -69 -42 -3 -19 -10 -34 -15 -34 -5 0 -9 -7 -9 -15 0 -9 -10 -15 -25 -16 -14 -1 -34 -2 -45 -3 -12 0 -25 -7 -29 -15 -7 -11 -9 -11 -14 0 -4 10 -6 10 -6 2 -1 -7 -12 -13 -26 -13 -15 0 -25 -5 -24 -12 4 -34 -3 -58 -27 -83 -20 -21 -25 -36 -23 -66 2 -25 -3 -44 -14 -57 -9 -10 -14 -21 -11 -25 3 -3 -2 -4 -13 -3 -10 2 -21 -2 -25 -8 -5 -6 -8 -2 -8 10 0 20 -5 21 -50 20 -28 -2 -53 1 -56 6 -8 12 -34 -11 -34 -28 0 -16 -16 -19 -25 -4 -4 6 -10 8 -15 5 -5 -3 -12 0 -16 6 -4 8 -3 9 4 5 7 -4 10 -2 7 6 -3 8 -14 14 -25 14 -10 0 -17 -3 -15 -6 2 -4 -2 -7 -10 -7 -8 0 -12 4 -9 9 3 4 0 8 -7 8 -7 0 -9 3 -6 7 12 11 -23 41 -42 36 -10 -2 -28 7 -44 23 -21 20 -27 23 -27 10 0 -9 -4 -16 -10 -16 -5 0 -10 -11 -10 -24 0 -14 -7 -31 -15 -39 -8 -8 -11 -18 -7 -23 4 -5 -1 -2 -11 5 -15 12 -17 12 -12 -1 4 -11 0 -14 -17 -13 -13 1 -29 -2 -35 -8 -7 -5 -13 -6 -13 -2 0 4 -6 3 -13 -3 -15 -13 -64 8 -84 35 -15 20 -53 28 -53 12 0 -8 -4 -8 -14 0 -10 8 -16 9 -21 1 -7 -11 -35 11 -35 28 0 5 -16 27 -37 50 l-36 41 -19 -24 c-10 -13 -18 -31 -19 -42 0 -10 -3 -13 -6 -5 -2 6 -9 10 -14 6 -5 -3 -9 0 -9 6 0 6 -4 9 -8 6 -5 -3 -16 9 -26 26 -13 22 -21 27 -26 17 -12 -18 -40 -20 -41 -3 -3 34 -6 39 -17 36 -17 -3 -10 22 7 29 12 5 12 7 -1 12 -12 4 -20 -6 -33 -39 -17 -44 -18 -45 -32 -25 -8 12 -11 30 -8 41 4 13 -1 30 -14 46 -14 18 -19 34 -15 51 6 23 5 23 -21 11 -24 -11 -29 -10 -41 6 -8 12 -20 17 -35 13 -11 -3 -18 -3 -15 0 3 4 -4 11 -17 17 -12 6 -26 21 -32 34 -11 24 -38 37 -81 41 -10 1 -14 7 -10 16 8 23 -25 36 -54 20 -14 -7 -24 -17 -22 -21 5 -15 -29 -12 -35 2 -3 8 -12 13 -20 10 -8 -3 -11 -1 -8 4 3 6 -1 10 -10 10 -15 0 -28 -9 -58 -36 -9 -9 -15 -4 -26 20 -7 17 -15 25 -18 19 -3 -7 -18 -13 -34 -13 -18 0 -28 -4 -24 -10 4 -6 -5 -10 -19 -10 -22 0 -26 5 -26 29 0 20 6 30 20 34 26 7 26 39 0 62 -28 25 -28 85 0 92 14 4 20 14 20 34 0 32 -20 39 -40 14 -7 -8 -20 -15 -29 -15 -13 0 -16 -7 -13 -35 l4 -35 -70 0 c-62 0 -71 2 -77 20 -7 23 -7 23 -105 21 -56 -1 -78 -6 -87 -18 -10 -12 -10 -20 -1 -30 9 -11 13 -12 19 -1 7 10 9 10 9 1 0 -7 6 -13 14 -13 8 0 13 -8 12 -17 -2 -10 -7 -18 -12 -18 -5 0 -14 -4 -20 -8 -7 -4 -15 0 -18 9 -3 8 -10 13 -14 10 -5 -3 -18 1 -28 10 -18 14 -18 14 5 4 18 -10 22 -9 19 1 -3 8 -23 14 -52 15 -33 1 -52 8 -61 20 -12 16 -16 17 -24 5 -7 -12 -13 -12 -24 -3 -7 7 -17 9 -20 5 -4 -3 -7 -2 -7 3 0 6 5 15 11 21 7 7 7 13 1 17 -6 3 -13 -3 -17 -14 -4 -11 -11 -18 -16 -14 -5 3 -7 9 -4 14 3 4 -4 10 -15 13 -11 3 -20 1 -20 -4 0 -5 5 -9 12 -9 6 0 8 -3 5 -6 -4 -4 -14 -1 -23 7 -15 12 -16 11 -10 -8 6 -20 4 -21 -24 -18 -20 3 -33 -1 -36 -9 -3 -8 -14 -12 -26 -8 -14 3 -19 1 -14 -6 6 -11 -26 -18 -56 -13 -16 2 -7 -26 12 -44 11 -10 20 -13 20 -7 0 7 5 12 10 12 15 0 9 -109 -6 -125 -15 -14 -9 -75 7 -75 5 0 9 -11 9 -24 0 -29 29 -100 37 -92 3 3 12 1 19 -5 10 -8 11 -16 3 -30 -7 -13 -6 -19 1 -19 7 0 11 -12 10 -27 -4 -49 0 -62 20 -81 14 -13 19 -28 16 -56 -2 -28 3 -43 18 -57 11 -11 22 -32 24 -47 2 -15 8 -31 14 -37 8 -7 9 -6 3 5 -6 11 -5 12 4 4 7 -6 14 -27 15 -45 2 -19 8 -33 13 -32 5 1 10 -3 11 -10 1 -7 5 -28 8 -47 5 -30 0 -42 -31 -83 -20 -26 -40 -47 -45 -47 -6 0 -9 -11 -8 -25 1 -14 6 -25 10 -25 4 0 7 -3 7 -7 -1 -5 -1 -22 0 -39 1 -28 4 -31 26 -26 17 3 27 -1 31 -12 3 -9 11 -16 16 -16 6 0 5 7 -3 16 -10 12 -10 17 0 23 7 5 10 19 7 35 -3 14 -1 24 3 21 8 -4 7 -71 -2 -127 -2 -15 0 -25 5 -22 5 3 7 12 4 20 -3 7 -1 16 5 19 5 4 9 3 8 -2 -1 -4 -1 -15 0 -23 1 -13 4 -12 15 2 11 15 12 12 12 -23 0 -38 -1 -38 -14 -17 -9 15 -11 17 -8 5 3 -10 6 -31 7 -45 0 -24 1 -25 9 -7 7 15 9 16 9 4 1 -9 -6 -22 -15 -29 -8 -8 -14 -9 -13 -4 1 5 1 20 0 34 -1 20 -3 22 -11 10 -6 -10 -10 -11 -10 -3 0 15 -52 14 -62 -2 -5 -6 -8 -4 -8 5 0 13 -1 13 -10 0 -6 -10 -10 -11 -10 -2 0 6 -5 12 -11 12 -5 0 -8 -4 -5 -9 4 -5 -8 -7 -25 -4 -27 4 -31 2 -25 -13 5 -14 4 -15 -8 -5 -11 9 -16 9 -22 0 -4 -7 -3 -9 3 -6 6 4 8 -3 6 -18 -3 -15 -10 -22 -19 -18 -10 4 -12 9 -4 18 7 9 6 16 -4 24 -10 9 -16 8 -26 -4 -14 -17 -35 -21 -25 -5 4 6 -10 10 -33 10 -26 0 -42 5 -46 15 -3 8 -17 15 -31 15 -20 0 -25 5 -25 25 0 18 -5 25 -20 25 -13 0 -20 7 -20 19 0 10 -7 24 -15 31 -55 45 -140 327 -175 575 -7 50 -16 97 -21 105 -26 50 -22 -426 5 -620 24 -170 55 -341 72 -405 9 -33 19 -71 21 -85 3 -14 14 -56 25 -93 10 -37 34 -127 53 -200 49 -191 102 -362 193 -617 168 -473 237 -651 318 -828 19 -41 34 -76 34 -79 0 -8 95 -243 125 -308 34 -76 60 -134 91 -205 27 -62 126 -224 143 -235 5 -3 7 -14 4 -25 -3 -11 -1 -20 5 -20 5 0 12 -12 15 -27 3 -16 22 -55 42 -87 39 -66 104 -253 130 -379 3 -15 9 -26 13 -23 4 2 9 -64 10 -147 3 -133 0 -168 -23 -277 -15 -69 -29 -152 -32 -185 -5 -66 -18 -42 126 -241 16 -23 47 -75 69 -115 22 -41 55 -96 73 -123 51 -73 80 -123 161 -276 36 -67 53 -96 107 -180 19 -28 40 -77 71 -165 24 -68 40 -104 81 -190 15 -33 46 -98 67 -145 21 -47 72 -140 113 -205 178 -285 264 -468 389 -822 58 -166 72 -182 102 -115 9 20 40 87 69 147 28 61 78 171 111 245 33 74 104 221 158 327 55 105 115 236 134 290 34 96 118 305 157 392 20 44 62 154 126 331 40 113 82 227 94 255 4 11 22 65 40 120 29 91 47 143 69 200 21 55 44 113 56 142 8 17 14 36 14 42 0 6 4 19 10 29 10 19 24 53 65 157 33 86 61 154 91 221 13 28 33 77 44 110 26 71 47 120 64 154 7 14 19 43 26 65 7 22 26 67 42 100 36 70 38 77 77 175 28 74 39 106 66 207 8 28 24 66 35 85 11 18 29 60 39 93 11 33 33 90 50 127 17 36 31 69 31 73 0 3 15 38 34 78 31 68 118 284 156 392 10 28 30 82 44 120 49 137 65 277 71 655 5 303 10 389 26 450 11 45 26 531 20 645 -6 99 -1 175 10 175 6 0 9 -7 6 -15 -4 -8 -1 -17 4 -21 14 -8 2 141 -17 217 -8 31 -14 67 -14 80 0 29 -23 96 -50 150 -11 21 -20 46 -20 56 -1 10 -16 43 -35 73 -53 86 -105 183 -105 197 0 7 -13 19 -30 28 -29 15 -40 35 -20 35 6 0 10 7 10 15 0 8 -4 15 -10 15 -5 0 -25 17 -45 38 l-35 37 1 -35 c4 -108 -11 -300 -27 -350 -11 -33 -17 -78 -15 -114 2 -37 -1 -56 -7 -52 -6 4 -10 65 -9 154 1 126 -2 151 -17 175 -12 18 -15 31 -9 40 5 6 9 50 7 97 -2 81 19 190 37 190 14 0 28 57 16 69 -8 8 -8 20 1 43 10 26 9 36 -3 55 -9 13 -20 23 -25 23 -5 0 -6 7 -3 17 4 11 3 14 -5 9 -14 -9 -15 3 -2 24 8 12 14 12 46 -4 36 -17 39 -17 51 0 11 15 8 19 -20 33 -19 10 -30 22 -28 31 3 8 4 32 4 53 -1 35 1 37 28 37 l30 0 -5 63 c-6 84 -8 90 -31 104 -11 7 -15 12 -9 13 6 0 11 7 11 15 0 8 -4 12 -8 9 -17 -10 -2 43 17 62 14 14 20 32 19 55 -1 19 3 37 9 41 16 11 2 19 -39 21 -26 1 -42 9 -52 23 -18 28 -25 64 -11 64 6 0 6 6 -2 15 -18 22 -11 25 56 28 32 1 57 5 56 10 -1 4 -2 11 -2 16 0 5 -11 12 -25 15 -14 4 -23 11 -20 17 4 6 -3 8 -19 5 -14 -3 -26 -1 -26 4 0 5 -7 16 -16 24 -8 9 -11 16 -5 16 6 0 11 5 11 10 0 6 -9 10 -20 10 -31 0 -23 18 13 29 17 5 26 10 20 10 -7 1 -13 10 -13 21 0 11 -5 20 -11 20 -7 0 0 11 15 25 21 20 25 30 20 52 -4 15 -7 32 -7 38 1 5 4 54 9 109 7 98 7 98 -14 91 -13 -3 -22 -2 -22 4 0 5 -7 17 -16 25 -9 9 -11 16 -4 16 7 0 3 15 -10 38 -19 34 -25 37 -60 37 -31 0 -41 4 -49 23 -7 15 -7 21 -1 17 5 -3 10 -2 10 3 0 15 -56 62 -81 67 -24 5 -52 32 -45 44 2 3 -6 7 -19 7 -17 1 -21 -2 -18 -17 4 -13 0 -19 -11 -20 -9 -1 -22 -2 -28 -3 -7 -1 -19 3 -27 8 -11 8 -13 8 -7 -2 4 -7 -19 15 -52 48 -59 59 -107 85 -138 73 -8 -3 -14 -9 -14 -14 0 -5 -9 -1 -20 9 -23 19 -24 19 -76 21 -21 0 -33 5 -29 11 3 6 -3 10 -14 10 -12 0 -21 7 -21 15 0 16 -25 21 -35 6 -6 -10 -37 -7 -57 5 -7 5 -8 3 -3 -6 9 -15 -9 -6 -37 18 -10 8 -18 12 -18 8 0 -4 -10 0 -22 8 -12 9 -32 16 -43 17 -19 0 -112 103 -127 140 -9 22 17 44 60 52 24 5 32 3 32 -8 0 -8 5 -15 10 -15 6 0 10 10 10 21 0 19 34 86 50 99 4 3 20 30 36 60 16 30 31 57 34 60 11 10 12 140 1 140 -6 0 -11 -14 -11 -31z m-1142 -219 c2 -5 17 -10 33 -10 17 0 28 -4 24 -9 -3 -5 2 -17 11 -25 14 -15 13 -17 -15 -22 -17 -4 -31 -11 -31 -16 0 -6 -7 -7 -15 -4 -10 4 -20 -3 -27 -19 -10 -23 -15 -26 -34 -24 -3 0 -12 -8 -20 -18 -11 -14 -13 -15 -14 -3 0 12 -3 11 -11 -2 -5 -10 -17 -18 -24 -18 -9 0 -16 -10 -16 -22 -1 -14 -6 -5 -12 20 -9 38 -13 43 -33 38 -13 -3 -26 -1 -29 4 -4 6 -10 8 -15 5 -4 -3 -3 13 2 35 8 29 16 40 29 40 14 0 19 -8 20 -27 1 -35 6 -21 14 39 l6 47 57 3 c71 4 96 1 100 -12z m757 6 c20 -14 26 -16 46 -16 8 0 9 -17 4 -56 -5 -42 -3 -59 6 -65 21 -13 3 -22 -19 -10 -12 6 -37 11 -56 11 -29 0 -36 4 -36 20 0 17 -7 20 -40 20 -22 0 -40 5 -40 11 0 6 -9 22 -20 36 -29 37 -25 45 18 39 21 -3 52 1 72 8 46 18 43 18 65 2z m-392 -439 c12 11 77 -22 77 -39 0 -10 5 -18 11 -18 6 0 8 -9 4 -20 -4 -11 -2 -20 4 -20 6 0 11 9 11 20 0 11 6 20 14 20 21 0 30 -18 17 -34 -19 -22 0 -25 35 -5 34 19 34 19 56 -3 14 -14 32 -21 49 -20 23 3 31 -4 55 -47 15 -28 33 -51 41 -51 7 0 13 -9 13 -20 0 -11 7 -20 16 -20 8 0 13 -4 9 -9 -10 -17 15 -23 31 -7 17 18 24 19 40 8 13 -8 13 -72 1 -72 -5 0 -6 -3 -4 -7 3 -5 -23 -8 -56 -8 -41 0 -76 -7 -102 -19 -22 -11 -57 -21 -78 -22 -22 -1 -60 -10 -85 -22 -86 -36 -171 -61 -177 -51 -4 5 -17 9 -31 9 -13 0 -43 9 -67 20 -23 11 -72 26 -109 34 -37 8 -71 17 -77 20 -17 11 -243 8 -255 -4 -5 -5 -40 -10 -77 -10 -38 0 -69 -5 -71 -10 -7 -21 -85 -41 -115 -29 -31 12 -31 12 -56 -12 -17 -16 -172 -38 -184 -26 -7 7 15 48 42 77 13 14 28 44 34 67 10 36 15 42 36 41 13 -1 23 -7 22 -13 -1 -5 7 -9 19 -7 25 3 49 -22 41 -43 -4 -8 -2 -17 4 -20 11 -7 39 18 39 35 0 7 11 21 24 31 18 14 25 33 31 74 6 50 9 55 31 55 28 0 65 -17 77 -34 5 -8 9 -8 15 1 10 15 100 15 124 -1 14 -9 21 -6 33 12 9 12 27 22 39 22 26 0 36 17 36 57 0 26 24 28 26 2 3 -37 3 -37 51 -23 26 8 53 12 60 10 8 -4 13 3 13 19 0 18 5 25 20 25 11 0 20 6 20 13 0 13 24 28 63 41 10 3 16 2 13 -3 -9 -14 43 -10 55 5 6 8 15 11 20 8 5 -3 9 4 9 15 0 17 4 18 29 11 16 -4 32 -6 34 -3z m247 -5267 c-5 -10 -10 -39 -10 -64 l0 -46 -50 0 c-44 0 -50 -3 -50 -20 0 -19 6 -21 93 -20 50 0 103 0 117 -1 14 -1 41 -1 60 1 19 1 78 2 132 1 l96 -1 7 -41 c7 -39 8 -40 43 -39 79 4 92 1 92 -20 0 -11 6 -20 13 -21 6 0 60 0 119 0 120 0 122 -1 117 -77 -3 -63 0 -82 16 -82 20 0 19 -37 -1 -75 -9 -16 -17 -48 -17 -70 0 -35 0 -36 -4 -7 -3 23 -9 32 -24 32 -13 0 -19 -7 -19 -21 0 -16 -5 -20 -20 -16 -16 4 -20 0 -20 -19 0 -13 -4 -24 -10 -24 -5 0 -9 -22 -9 -50 1 -27 6 -50 10 -50 5 0 9 -4 9 -10 0 -5 -9 -10 -20 -10 -18 0 -20 7 -20 60 0 53 -2 60 -20 60 -18 0 -20 -7 -20 -66 0 -62 -1 -66 -21 -61 -17 5 -20 2 -16 -14 3 -10 1 -19 -5 -19 -6 0 -8 -9 -5 -20 3 -11 1 -18 -3 -15 -5 3 -11 1 -15 -5 -4 -6 -11 -8 -16 -5 -5 4 -9 -5 -9 -18 0 -14 6 -24 15 -24 8 0 15 4 15 9 0 5 5 6 11 2 8 -4 7 -9 -2 -15 -7 -4 -17 -5 -21 -3 -4 3 -8 0 -8 -5 0 -19 -43 -61 -62 -61 -10 0 -17 -3 -17 -7 4 -23 -3 -31 -21 -26 -11 3 -20 14 -20 24 0 11 -5 18 -12 16 -7 -1 -12 4 -13 11 0 6 -4 12 -10 11 -5 0 -9 -8 -7 -17 3 -14 1 -13 -13 3 -9 11 -14 14 -10 7 4 -8 -4 -14 -24 -18 -16 -4 -32 -12 -35 -20 -3 -7 -11 -11 -19 -8 -7 2 -26 -2 -41 -9 -24 -13 -25 -15 -7 -20 20 -5 22 -21 8 -45 -6 -9 -13 -9 -28 -2 -18 10 -23 6 -20 -14 1 -4 -11 -5 -26 -2 -17 4 -23 3 -15 -2 16 -11 4 -44 -15 -40 -8 2 -13 6 -11 9 2 3 -3 13 -11 23 -10 12 -17 14 -27 5 -8 -6 -14 -8 -14 -4 0 4 -7 2 -15 -5 -8 -7 -12 -17 -8 -23 3 -5 1 -7 -5 -3 -6 3 -13 2 -17 -4 -3 -5 -21 -10 -40 -10 -19 0 -45 -4 -59 -10 -23 -8 -26 -7 -26 10 0 22 -2 22 -75 20 -60 -1 -85 -8 -85 -21 0 -6 5 -7 10 -4 6 3 10 -1 10 -9 0 -9 6 -16 14 -16 8 0 17 -4 20 -9 4 -5 -3 -7 -14 -4 -11 3 -20 1 -20 -4 0 -6 -10 -10 -22 -10 -66 -1 -79 -3 -72 -15 5 -8 2 -9 -10 -5 -10 4 -22 7 -27 7 -5 0 -9 10 -9 21 0 16 -5 20 -18 17 -21 -6 -46 18 -36 34 4 6 3 8 -4 4 -6 -3 -13 -2 -17 4 -3 5 -15 10 -26 10 -15 0 -19 -7 -19 -34 l0 -35 -60 1 c-33 0 -60 5 -60 9 0 5 15 9 33 9 24 0 35 6 44 25 6 14 8 23 3 20 -4 -2 -15 4 -25 15 -28 31 -59 26 -70 -12 -10 -32 -11 -33 -60 -29 -27 1 -51 4 -53 6 -8 7 -10 45 -2 45 5 0 5 13 0 30 -5 19 -5 28 1 25 5 -4 9 -1 9 6 0 7 -10 9 -25 7 -30 -6 -39 15 -29 67 5 28 11 35 30 35 22 0 23 3 19 48 -10 86 -17 112 -32 112 -12 0 -13 21 -7 140 5 102 4 140 -5 140 -6 0 -11 17 -11 40 0 22 5 40 10 40 6 0 9 6 8 13 -2 6 4 10 12 8 25 -6 137 -4 149 3 7 5 8 13 1 25 -11 21 -4 31 22 31 11 0 18 7 18 20 0 13 7 20 20 20 14 0 20 7 20 24 0 19 4 23 20 19 18 -5 20 0 20 56 0 53 3 61 17 59 11 -2 19 6 24 22 4 14 8 18 8 10 1 -11 3 -12 9 -3 14 22 56 32 70 17 7 -8 33 -14 61 -14 50 0 74 -16 84 -55 4 -18 5 -18 6 3 1 20 6 22 56 22 l54 0 3 63 3 62 53 0 c28 -1 52 3 52 8 0 4 5 5 10 2 7 -4 7 -12 0 -25z"/>
<path d="M8211 10047 c-7 -19 -11 -47 -10 -63 4 -84 -12 -285 -27 -319 -8 -21 -14 -45 -11 -54 2 -9 -3 -23 -11 -30 -9 -9 -12 -25 -9 -49 7 -41 10 -44 29 -37 21 8 40 52 44 100 2 22 6 67 8 100 3 33 10 84 16 114 5 29 10 92 10 140 0 128 -16 168 -39 98z"/>
<path d="M5740 8480 c-8 -5 -34 -10 -56 -10 -25 0 -47 -6 -54 -15 -17 -21 -36 -19 -61 6 -20 20 -21 20 -34 2 -8 -10 -15 -24 -15 -30 0 -14 -4 -14 133 -14 73 0 97 -3 97 -13 0 -15 46 -10 56 6 3 5 12 4 20 -3 11 -9 14 -7 14 10 0 14 -6 21 -20 21 -13 0 -20 7 -20 19 0 27 -33 39 -60 21z"/>
<path d="M5675 8299 c8 -12 -47 -31 -58 -20 -8 8 -17 5 -30 -7 -15 -12 -21 -14 -24 -4 -3 6 -15 12 -28 12 -13 0 -26 -6 -28 -12 -4 -10 -7 -10 -14 -1 -13 19 -64 18 -101 -1 -19 -10 -40 -15 -48 -12 -7 3 -16 0 -20 -5 -3 -6 -15 -9 -25 -6 -11 3 -19 1 -19 -5 0 -5 -9 -6 -20 -3 -12 4 -31 0 -44 -9 -22 -14 -24 -14 -19 4 3 11 1 20 -3 21 -50 5 -84 3 -88 -7 -3 -7 7 -10 30 -7 25 2 34 0 34 -11 0 -18 -36 -40 -54 -33 -19 7 -44 -11 -30 -20 20 -13 20 -58 1 -77 -9 -10 -17 -26 -17 -37 0 -15 8 -19 38 -20 20 -1 40 -1 45 0 7 1 10 -22 5 -36 -5 -11 66 -31 95 -26 15 3 27 1 27 -4 0 -5 16 -15 35 -23 19 -7 32 -17 30 -21 -3 -3 9 -12 26 -19 20 -9 32 -22 36 -40 4 -23 13 -30 47 -39 22 -6 54 -9 69 -7 23 3 30 -2 37 -20 8 -21 26 -29 52 -25 4 0 39 1 78 2 55 1 70 5 66 15 -3 8 -2 13 2 12 4 -1 16 3 27 9 18 9 28 10 60 3 26 -6 35 2 35 30 0 23 4 30 20 30 11 0 20 6 20 14 0 9 16 17 41 21 29 5 43 13 46 26 3 10 10 19 15 19 5 0 16 6 24 14 7 8 19 16 24 18 8 2 8 11 1 30 -12 31 -6 38 30 38 30 0 47 15 27 23 -8 3 -6 6 5 6 10 1 29 -6 42 -15 24 -16 25 -15 25 4 0 12 5 24 10 27 6 3 10 17 10 30 0 15 7 26 20 30 15 5 20 15 20 41 0 35 -13 46 -24 19 -4 -13 -10 -14 -26 -5 -11 6 -25 8 -31 4 -6 -3 -20 3 -32 14 -22 20 -78 34 -132 33 -26 0 -27 1 -10 9 17 7 15 9 -12 9 -23 1 -33 -4 -33 -14 0 -11 -11 -15 -40 -15 -29 0 -40 4 -40 15 0 10 -11 15 -32 16 -18 0 -65 3 -105 7 -39 4 -70 5 -68 1z"/>
<path d="M2927 7984 c-12 -14 -39 -35 -59 -47 -21 -11 -40 -28 -43 -36 -3 -9 -21 -34 -40 -55 -19 -22 -32 -43 -29 -48 6 -9 -27 -68 -38 -68 -4 0 -8 -7 -8 -15 0 -9 -7 -18 -15 -21 -8 -4 -15 -16 -15 -28 0 -17 -2 -18 -10 -6 -9 13 -10 13 -11 0 -1 -8 -3 -19 -4 -25 -2 -5 -3 -16 -4 -22 0 -7 -11 -13 -23 -13 -17 0 -20 -3 -9 -9 21 -13 7 -37 -32 -56 -19 -9 -37 -25 -40 -37 -4 -13 -10 -17 -18 -12 -7 4 -10 3 -6 -4 13 -19 -3 -40 -25 -34 -17 4 -20 2 -15 -11 6 -17 -24 -42 -36 -30 -4 3 -11 -6 -17 -21 -11 -31 -38 -61 -46 -53 -7 7 -149 -135 -164 -163 -6 -11 -15 -18 -21 -15 -5 4 -9 0 -9 -9 0 -8 -14 -27 -31 -43 -18 -15 -41 -37 -53 -48 -11 -11 -26 -19 -33 -17 -6 1 -28 -14 -48 -34 -21 -20 -42 -33 -50 -30 -8 3 -17 1 -20 -4 -4 -6 -1 -10 5 -10 6 0 8 -5 5 -10 -5 -8 -11 -8 -20 0 -16 13 -29 -3 -30 -35 0 -13 -6 -19 -18 -17 -9 2 -20 -4 -23 -13 -3 -8 -11 -15 -18 -15 -19 0 -89 -77 -81 -89 4 -7 1 -10 -7 -9 -7 2 -12 -3 -10 -10 1 -8 -1 -11 -6 -8 -4 2 -23 -13 -42 -35 -19 -23 -39 -38 -47 -34 -8 2 -26 -1 -41 -9 -15 -7 -47 -16 -72 -20 -24 -4 -49 -10 -55 -15 -5 -4 -48 -23 -95 -41 -47 -19 -92 -39 -100 -45 -8 -6 -33 -20 -55 -30 -22 -11 -41 -23 -43 -27 -2 -5 -11 -8 -21 -8 -9 0 -26 -7 -37 -15 -10 -8 -26 -15 -35 -15 -25 0 -69 -24 -69 -37 0 -7 -9 -13 -19 -13 -11 0 -22 -6 -24 -12 -4 -10 -8 -9 -16 2 -10 14 -15 7 -12 -13 1 -4 -11 -5 -26 -1 -19 4 -24 3 -15 -4 11 -7 11 -10 -2 -15 -9 -4 -16 -2 -16 4 0 6 -16 2 -36 -10 -19 -12 -42 -21 -51 -21 -8 0 -17 -9 -20 -21 -4 -15 -12 -20 -28 -17 -14 3 -26 -2 -33 -13 -8 -12 -20 -16 -37 -13 -16 3 -25 0 -25 -8 0 -7 -26 -21 -58 -30 -31 -9 -67 -26 -79 -37 -12 -11 -34 -23 -50 -26 -15 -4 -37 -10 -48 -15 -75 -32 -92 -39 -111 -45 -12 -3 -32 -14 -44 -25 -13 -11 -36 -20 -52 -20 -17 0 -31 -6 -35 -16 -4 -11 -8 -12 -13 -4 -4 7 -13 2 -23 -14 -11 -15 -23 -23 -32 -20 -19 8 -35 -33 -35 -89 0 -23 -7 -60 -14 -82 -8 -22 -10 -41 -5 -43 12 -5 12 -82 -1 -82 -7 0 -10 -960 -10 -2860 l0 -2860 1716 0 1717 0 -7 43 c-4 23 -9 78 -11 122 -2 44 -1 67 1 50 9 -53 15 -63 25 -36 13 34 14 110 1 123 -6 6 -8 16 -6 23 9 22 -16 28 -31 9 -13 -18 -14 -17 -15 14 0 22 5 32 15 32 8 0 15 -4 15 -10 0 -5 8 -10 17 -10 14 0 13 3 -5 21 -12 11 -20 24 -17 30 11 16 -6 51 -21 45 -10 -4 -14 3 -14 24 0 21 4 28 14 24 11 -4 13 0 9 16 -3 11 -8 18 -11 15 -3 -2 -11 3 -18 13 -17 24 -31 258 -15 248 6 -4 11 -2 11 3 0 6 -4 11 -10 11 -5 0 -10 12 -10 28 0 18 -3 23 -9 14 -7 -12 -21 101 -25 206 0 17 -4 32 -8 32 -3 0 -8 33 -11 73 -2 39 -10 124 -16 187 -30 294 -30 320 -5 299 11 -9 18 -9 29 1 19 16 19 43 1 83 -8 18 -19 55 -26 82 -7 28 -18 67 -26 88 -8 20 -14 49 -14 62 0 14 -4 25 -9 25 -8 0 -13 22 -26 129 -3 24 -8 47 -10 52 -3 4 -12 59 -20 121 -9 62 -20 147 -26 188 -6 41 -19 152 -29 245 -11 94 -26 213 -35 265 -31 200 -51 358 -71 565 -4 39 -9 84 -11 100 -2 17 -7 88 -11 158 -5 100 -11 131 -23 140 -34 25 -40 55 -38 202 0 101 -3 150 -11 160 -7 8 -10 26 -8 40 3 13 -1 47 -8 74 -7 27 -13 68 -15 92 -1 24 -8 51 -15 59 -12 14 -36 186 -36 260 0 59 -21 209 -29 205 -4 -3 -9 26 -12 63 -3 37 -7 81 -10 97 -3 17 -8 73 -12 125 -3 52 -10 122 -15 155 -13 82 -76 732 -91 934 -17 237 -7 662 21 856 40 279 102 473 191 600 24 35 27 46 22 88 -3 26 -10 47 -14 47 -5 0 -19 -12 -32 -26z"/>
<path d="M7860 6681 c0 -8 9 -39 19 -70 19 -52 62 -201 145 -501 51 -185 141 -626 211 -1035 20 -115 44 -253 55 -305 10 -52 32 -180 49 -285 17 -104 40 -237 51 -295 11 -58 27 -150 35 -205 8 -55 31 -163 51 -240 20 -77 43 -169 52 -205 13 -50 17 -111 16 -270 0 -213 -9 -299 -50 -510 -37 -189 -70 -275 -126 -334 l-46 -48 -26 18 c-28 21 -40 67 -52 204 -15 171 -19 203 -29 207 -7 2 -7 -27 1 -89 20 -147 16 -295 -11 -508 -14 -107 -30 -220 -36 -250 -7 -30 -13 -80 -15 -110 -2 -30 -6 -61 -9 -68 -4 -12 17 -110 35 -162 5 -14 11 -77 14 -140 9 -175 12 -212 25 -255 6 -22 16 -80 21 -129 5 -49 14 -92 21 -97 7 -4 9 -15 5 -24 -3 -10 -1 -23 5 -31 6 -7 14 -50 19 -96 8 -85 28 -184 60 -298 39 -137 54 -298 33 -348 -7 -18 -11 -37 -9 -41 3 -4 1 -23 -5 -42 -5 -19 -14 -53 -18 -76 l-8 -43 1228 0 1229 0 0 2604 0 2605 -22 7 c-13 3 -34 15 -48 24 -39 28 -106 65 -223 125 -59 31 -124 65 -145 77 -107 61 -282 153 -402 211 -456 223 -624 298 -910 412 -135 53 -263 105 -285 116 -22 10 -143 59 -270 109 -126 50 -240 98 -252 106 -12 8 -44 26 -70 41 -92 51 -196 124 -229 161 -18 20 -44 51 -58 67 -14 17 -26 24 -26 16z"/>
<path d="M8085 3600 c-5 -14 -9 -28 -10 -32 0 -3 -3 -10 -7 -14 -5 -4 -8 -16 -8 -26 0 -10 -4 -26 -10 -36 -69 -126 -92 -211 -40 -150 l20 23 -9 -27 c-8 -20 -6 -29 4 -38 12 -10 16 -9 21 4 10 25 23 19 32 -16 4 -18 14 -33 20 -32 7 1 23 2 37 3 24 1 25 3 20 54 -3 28 -9 63 -14 77 -9 22 -19 73 -40 195 -7 38 -7 39 -16 15z"/>
</g>
</svg>
